<?xml version="1.0" standalone="no"?>
<!DOCTYPE svg PUBLIC "-//W3C//DTD SVG 20010904//EN"
 "http://www.w3.org/TR/2001/REC-SVG-20010904/DTD/svg10.dtd">
<svg version="1.0" xmlns="http://www.w3.org/2000/svg"
 width="736.000000pt" height="736.000000pt" viewBox="0 0 736.000000 736.000000"
 preserveAspectRatio="xMidYMid meet">

<g transform="translate(0.000000,736.000000) scale(0.100000,-0.100000)"
fill="#000000" stroke="none">
<path d="M3505 5719 c-521 -49 -1012 -283 -1386 -659 -286 -289 -485 -636
-584 -1023 -54 -212 -69 -334 -69 -567 0 -212 13 -339 54 -516 40 -170 134
-423 197 -532 14 -24 23 -45 20 -49 -3 -3 -20 0 -38 6 -18 6 -49 11 -71 11
l-38 0 25 -40 c49 -78 44 -119 -15 -120 -14 0 -50 -12 -80 -26 l-55 -26 60
-28 c40 -19 53 -29 38 -29 -34 -1 -124 -38 -178 -73 l-50 -31 30 -13 c17 -7
61 -16 98 -20 l68 -7 -34 -36 c-42 -43 -79 -114 -71 -135 12 -31 129 -61 359
-90 1030 -131 3585 -103 4135 45 77 21 100 33 100 53 0 14 -99 97 -178 149
l-53 35 70 21 c39 12 71 26 71 32 0 22 -126 88 -210 110 l-45 12 60 27 60 28
-55 26 c-30 14 -61 26 -67 26 -20 0 -16 13 29 92 90 159 176 381 221 573 80
335 77 742 -7 1072 -74 293 -209 576 -392 820 -72 96 -264 296 -359 373 -471
384 -1062 565 -1660 509z m565 -165 c396 -61 796 -260 1105 -550 63 -59 67
-65 40 -59 -16 3 -70 8 -120 11 -77 5 -98 3 -148 -16 -115 -43 -162 -96 -213
-240 -15 -41 -30 -78 -34 -83 -6 -7 1 80 15 165 l7 47 -33 3 -34 4 41 12 c34
10 44 19 59 54 10 24 36 65 58 92 l40 48 -44 -7 c-103 -16 -188 -84 -191 -153
0 -20 0 -54 0 -74 1 -21 0 -38 -1 -38 -2 0 -21 25 -42 55 -21 31 -40 53 -42
51 -4 -4 11 -50 42 -128 5 -13 -9 -11 -81 14 -80 28 -97 30 -180 26 -65 -4
-116 -13 -173 -33 -45 -16 -81 -32 -81 -36 0 -3 21 -12 46 -18 40 -10 48 -9
74 9 36 26 41 25 31 -2 -9 -23 -8 -23 93 -24 55 0 121 -6 145 -13 47 -13 154
-62 148 -67 -1 -2 -25 4 -52 13 -36 12 -89 17 -190 17 -137 1 -142 0 -205 -30
-75 -35 -167 -116 -216 -188 -18 -27 -32 -51 -31 -52 6 -6 113 30 119 40 4 6
8 22 9 36 1 24 1 24 11 -5 6 -16 12 -31 13 -33 1 -1 26 3 56 9 36 8 66 22 91
44 52 48 77 62 141 84 64 22 74 20 23 -4 -59 -28 -135 -110 -166 -178 -27 -60
-56 -174 -47 -183 2 -2 31 10 63 29 51 28 60 38 64 67 5 32 7 33 14 13 10 -30
14 -29 60 14 42 39 41 30 10 123 -3 8 8 0 24 -19 l29 -34 75 77 c41 42 80 76
86 76 6 0 1 -22 -12 -52 -45 -103 -63 -230 -46 -331 13 -83 42 -172 55 -172
13 0 52 73 69 128 12 41 12 48 -5 77 -25 40 -24 44 7 24 39 -26 45 -7 42 133
-2 66 0 119 4 117 16 -10 108 -186 145 -279 59 -145 89 -236 122 -373 25 -103
36 -129 72 -177 40 -53 59 -67 59 -44 0 5 -16 72 -35 147 -70 278 -177 546
-278 695 l-46 68 35 -22 c67 -41 139 -79 152 -79 8 0 12 16 13 48 l0 47 25
-65 c15 -40 37 -75 56 -92 39 -34 42 -34 55 -5 10 21 11 20 22 -19 8 -31 20
-45 50 -62 52 -29 58 -28 54 11 -14 112 -24 139 -71 184 -44 42 -45 44 -19 39
41 -10 34 10 -28 72 -50 50 -57 54 -94 50 -38 -3 -39 -2 -24 14 15 17 13 19
-23 34 -21 9 -61 19 -87 22 l-48 5 73 40 c40 22 75 41 77 43 2 2 -1 17 -7 33
-13 37 -10 38 26 11 l28 -21 57 22 c31 12 57 25 57 29 0 5 -23 20 -52 34 -39
20 -46 26 -27 26 13 -1 48 -9 78 -19 l54 -19 55 25 c30 13 60 22 67 19 19 -7
132 -152 206 -263 120 -183 236 -449 283 -651 l15 -63 -32 7 c-57 12 -151 8
-191 -10 -22 -9 -41 -14 -43 -12 -2 2 3 21 11 42 l16 39 -30 -35 -30 -34 0 50
c0 42 -5 55 -27 76 -28 27 -72 48 -100 48 -11 0 -8 -8 11 -31 14 -17 29 -41
32 -54 3 -14 17 -28 32 -34 19 -7 22 -10 9 -10 -17 -1 -18 -7 -13 -63 l7 -63
-25 58 c-30 73 -48 93 -111 124 -43 22 -58 25 -120 20 -38 -2 -83 -10 -100
-17 l-30 -12 45 -20 c37 -16 51 -18 81 -9 51 15 69 13 37 -5 -36 -19 -35 -29
1 -44 22 -9 34 -9 51 0 18 10 21 9 18 -6 -2 -13 11 -26 42 -43 36 -20 41 -26
25 -29 -55 -9 -86 -24 -76 -36 8 -10 4 -11 -17 -8 -23 3 -35 -4 -60 -32 -31
-35 -43 -64 -22 -51 20 12 10 -6 -15 -28 -19 -16 -27 -36 -32 -74 -6 -58 0
-64 42 -37 14 9 25 26 26 38 0 11 3 15 6 9 12 -32 56 0 68 50 4 15 12 30 17
33 6 4 8 -1 4 -14 -11 -33 10 -34 64 -2 l51 30 -40 -58 c-21 -32 -46 -76 -56
-97 -15 -37 -15 -40 1 -52 10 -7 20 -13 23 -13 3 0 29 44 56 97 l50 97 5 -85
c3 -48 8 -79 13 -71 5 6 13 12 20 12 8 0 8 -3 -1 -12 -7 -7 -12 -20 -12 -31 0
-23 40 -117 50 -117 16 0 35 99 35 180 0 57 -6 99 -18 129 -10 24 -16 45 -14
47 2 3 23 -16 46 -41 46 -50 55 -53 71 -27 11 16 11 16 6 0 -3 -10 -9 -24 -12
-32 -6 -17 44 -59 63 -52 7 3 13 -1 13 -8 0 -12 60 -56 76 -56 9 0 3 39 -11
81 -21 59 -60 114 -99 139 -17 11 -27 20 -23 20 16 0 83 -39 101 -59 11 -12
24 -21 30 -21 34 -1 38 -18 43 -175 l6 -157 -109 7 -109 7 -77 -51 -78 -51 0
-79 c0 -73 -2 -81 -29 -110 -25 -27 -36 -31 -79 -31 -69 0 -92 29 -116 144
-10 47 -22 86 -26 86 -5 0 -11 -18 -15 -40 -4 -22 -14 -44 -22 -48 -13 -8 -12
-25 9 -143 l25 -134 269 -2 c148 -1 272 -2 276 -3 14 0 -87 -270 -141 -377
l-28 -56 -6 31 c-4 18 -10 32 -15 32 -18 0 -93 -73 -124 -121 l-32 -50 -17 48
c-9 26 -26 66 -37 88 -24 46 -88 122 -95 115 -3 -3 -1 -52 4 -110 14 -153 14
-579 1 -612 -17 -42 -62 -59 -171 -65 -81 -5 -100 -9 -121 -28 -23 -21 -62
-45 -73 -45 -3 0 10 15 29 34 19 19 34 41 34 50 0 19 20 24 139 29 81 4 97 8
112 26 35 43 36 389 3 701 -16 153 -27 220 -89 551 -25 130 -45 239 -45 243 0
3 34 6 75 6 69 0 75 -2 80 -22 3 -13 16 -76 30 -141 13 -66 29 -125 35 -132
19 -23 70 -24 97 -1 30 27 37 72 28 181 -7 85 -8 88 -53 136 -57 61 -122 87
-242 96 -85 6 -89 7 -100 34 -14 33 -93 110 -136 132 -138 71 -580 139 -919
141 -180 1 -192 0 -230 -22 -41 -23 -101 -37 -1137 -272 -290 -66 -534 -123
-543 -126 -9 -4 -19 -20 -22 -35 -3 -16 -10 -32 -14 -35 -12 -7 -12 -91 0 -98
5 -4 7 -236 3 -558 -5 -508 -4 -554 12 -567 19 -16 349 -80 414 -81 38 0 42
-2 42 -24 0 -34 18 -77 42 -103 25 -27 17 -30 -18 -6 -14 9 -34 33 -45 55 -14
27 -26 38 -41 38 -32 0 -358 61 -391 73 -54 19 -57 39 -57 357 l0 290 -27 0
c-16 0 -39 3 -51 7 -33 8 -8 23 41 23 l37 0 0 44 0 43 -72 7 c-93 8 -114 26
-32 26 85 0 101 7 108 42 3 17 4 33 2 35 -4 4 -115 -9 -183 -20 -28 -5 -30 15
-8 134 22 119 92 331 95 289 3 -35 30 -172 37 -183 3 -4 11 -3 18 3 11 9 12 7
8 -8 -2 -11 4 -35 14 -53 l18 -34 3 65 c2 36 -2 82 -9 102 -7 23 -9 56 -5 88
4 33 3 57 -4 65 -9 11 -7 12 9 8 14 -3 23 0 27 11 10 26 50 42 167 67 59 12
107 26 107 30 0 27 -164 27 -242 0 -29 -11 -62 -22 -73 -26 -11 -3 -2 5 20 19
41 27 114 52 175 60 19 2 37 5 39 5 2 1 -2 8 -9 16 -8 9 -9 15 -2 15 6 0 14
-4 17 -10 10 -15 37 -12 64 9 l24 18 -67 12 c-85 15 -171 1 -242 -39 l-52 -29
10 41 c13 59 4 69 -19 24 l-20 -39 -7 39 c-11 57 -23 74 -69 95 -44 19 -107
26 -107 10 0 -5 11 -16 24 -24 13 -9 34 -32 46 -51 13 -22 30 -36 43 -37 16
-1 17 -3 5 -6 -15 -4 -15 -8 -4 -41 7 -20 16 -50 20 -67 5 -24 0 -20 -24 22
-51 86 -120 133 -197 133 -21 0 -22 3 -17 48 49 401 182 738 415 1048 141 188
319 355 519 487 444 293 969 405 1510 321z m1730 -1722 c0 -22 -3 -23 -27 -16
-34 11 -187 12 -228 1 l-30 -7 25 14 c36 20 148 39 188 31 29 -5 34 -4 29 9
-5 13 -2 13 18 4 17 -7 25 -19 25 -36z m-1640 -42 c258 -19 600 -77 696 -119
64 -29 112 -68 139 -116 34 -57 31 -66 -12 -44 -63 30 -380 69 -728 89 -104 6
-209 15 -233 20 -23 6 -69 10 -102 10 -33 0 -60 4 -60 10 0 10 -69 60 -84 60
-6 0 -2 -6 9 -13 10 -8 15 -19 11 -26 -6 -9 0 -10 21 -6 23 5 25 4 13 -5 -13
-10 -13 -11 3 -6 9 3 17 1 17 -5 0 -7 -12 -8 -31 -4 -23 5 -30 4 -24 -5 5 -8
0 -11 -16 -9 -13 1 -37 -3 -52 -10 -16 -6 -34 -8 -40 -4 -7 3 -9 2 -4 -2 4 -5
0 -17 -10 -27 -15 -17 -15 -19 2 -38 10 -11 16 -22 13 -25 -8 -9 -488 -98
-1123 -210 -71 -13 -212 -38 -313 -56 -156 -28 -210 -32 -191 -15 2 2 294 56
648 120 355 65 653 122 663 127 14 7 18 22 18 59 0 28 2 50 5 50 3 0 72 14
154 30 82 17 155 28 162 26 73 -23 95 -9 29 18 -53 21 -73 20 -204 -8 -61 -14
-199 -44 -306 -66 -107 -23 -406 -86 -664 -141 -466 -99 -506 -106 -506 -91 1
23 55 38 455 127 242 53 611 135 820 181 384 85 431 92 482 74 26 -9 27 -9 9
5 -11 8 -28 15 -37 15 -35 0 -29 19 8 25 21 4 45 8 53 10 33 6 173 4 310 -5z
m-124 -205 c36 -15 92 -83 86 -107 -5 -25 -29 -11 -54 33 -11 21 -25 36 -29
34 -4 -3 -9 2 -13 10 -3 8 -10 15 -16 15 -6 0 -8 -4 -5 -10 3 -6 -1 -7 -9 -4
-9 3 -14 10 -11 14 7 11 -50 20 -119 18 l-61 -1 60 -7 c55 -5 52 -6 -48 -10
-59 -3 -107 -2 -107 3 0 4 7 7 15 7 8 0 17 1 20 2 67 25 234 27 291 3z m-69
-21 c-3 -3 -12 -4 -19 -1 -8 3 -5 6 6 6 11 1 17 -2 13 -5z m-657 -14 c0 -12
66 3 -640 -139 -327 -66 -603 -123 -612 -126 -12 -5 -18 -2 -18 8 0 10 16 19
48 25 26 6 238 49 472 97 234 47 486 98 560 114 147 32 190 36 190 21z m-1623
-19 c-3 -15 6 -21 52 -36 51 -16 54 -19 30 -25 -44 -12 -78 -40 -72 -57 5 -13
2 -15 -11 -10 -11 5 -26 -2 -42 -18 l-24 -24 -1 27 c0 15 -1 53 -2 84 -2 53
-1 57 19 52 12 -3 26 1 33 10 18 21 24 20 18 -3z m2373 -51 c15 -21 30 -30 50
-30 23 0 29 -5 34 -27 10 -53 10 -193 -1 -204 -5 -5 -25 -12 -44 -14 -39 -5
-69 17 -62 46 3 10 0 19 -6 19 -7 0 -9 19 -6 56 4 39 2 53 -6 48 -9 -5 -10 4
-5 31 5 23 4 35 -2 31 -6 -3 -8 9 -6 29 2 24 -1 33 -8 29 -7 -4 -8 -3 -4 4 13
21 44 13 66 -18z m380 10 l75 -7 -77 -1 c-43 -1 -78 -3 -78 -4 0 -2 13 -68 30
-148 16 -79 27 -146 24 -149 -2 -2 -4 2 -4 9 0 7 -13 -1 -30 -18 -16 -18 -30
-36 -30 -42 0 -5 -7 -10 -15 -10 -8 0 -15 -4 -15 -8 0 -5 -26 -35 -58 -68 -32
-32 -61 -67 -65 -77 -5 -12 -15 -17 -33 -15 -15 2 -29 -3 -31 -9 -3 -7 3 -13
12 -13 9 0 13 4 10 10 -4 6 1 7 11 3 16 -6 15 -8 -5 -16 -36 -17 -52 11 -67
110 -20 133 -20 133 21 133 41 0 75 29 75 64 0 35 -19 227 -26 255 l-5 24 103
-8 c57 -4 137 -11 178 -15z m-506 -17 c3 -16 26 -167 51 -336 25 -170 52 -321
60 -337 20 -38 67 -73 133 -99 56 -22 95 -26 422 -35 102 -4 254 -9 338 -12
201 -8 200 -9 204 118 l3 93 18 -130 c23 -163 27 -321 10 -317 -7 1 -13 -6
-13 -15 0 -49 -36 -138 -70 -174 l-37 -39 -303 0 -303 0 -93 69 -92 70 -27 81
c-26 78 -45 108 -25 41 8 -29 7 -32 -8 -26 -42 16 -132 32 -132 24 0 -28 65
-171 88 -194 49 -50 106 -82 173 -99 54 -13 124 -16 415 -16 435 0 404 -11
448 165 2 11 4 -69 3 -177 -2 -146 -5 -200 -15 -210 -10 -10 -81 -13 -315 -14
-166 0 -351 -3 -412 -7 l-110 -7 40 25 c29 18 54 25 90 25 36 0 46 -3 35 -10
-11 -7 -5 -9 22 -7 28 1 34 5 26 15 -9 11 21 12 163 8 96 -2 200 -8 232 -11
31 -4 57 -3 57 2 1 24 18 35 39 24 24 -13 28 -6 7 14 -7 8 -17 11 -20 7 -4 -3
-4 1 -1 10 14 36 -25 41 -292 33 l-254 -7 -32 -27 c-18 -14 -45 -38 -62 -53
-17 -16 -51 -32 -80 -39 -66 -15 -232 -8 -269 11 -34 17 -44 37 -21 42 15 3
14 5 -2 23 -13 15 -18 37 -19 85 -1 36 -5 78 -9 94 -5 18 -4 27 2 23 5 -3 10
0 10 8 0 8 -6 15 -14 15 -9 0 -13 -17 -13 -60 0 -33 -4 -60 -10 -60 -5 0 -10
19 -11 43 0 32 -2 37 -9 22 -8 -18 -9 -17 -9 7 -1 32 -19 33 -39 3 -12 -19
-13 -18 -9 8 2 15 0 30 -4 33 -5 3 -9 10 -9 16 0 7 7 6 18 -3 9 -8 27 -20 40
-27 18 -10 22 -10 22 3 0 9 -9 15 -24 15 -14 0 -31 8 -38 19 -11 15 -15 16
-25 5 -8 -8 -9 -15 -3 -19 6 -3 10 -17 10 -30 0 -28 20 -75 32 -75 4 0 8 5 8
10 0 6 -4 10 -10 10 -5 0 -10 5 -10 11 0 5 5 7 12 3 8 -5 9 -2 5 9 -3 10 -2
17 3 17 6 0 10 -19 11 -42 0 -24 3 -37 6 -30 3 9 10 4 19 -14 8 -15 12 -29 9
-32 -2 -3 -7 3 -11 12 -3 9 -12 16 -19 16 -7 0 -16 6 -19 13 -3 6 -3 1 0 -13
4 -14 11 -26 15 -28 5 -2 9 -18 9 -35 l0 -32 -18 28 c-10 15 -22 24 -25 20 -6
-6 -11 20 -8 40 0 4 -4 7 -9 7 -6 0 -10 5 -10 11 0 5 4 7 10 4 6 -3 7 1 4 9
-3 9 -10 14 -14 11 -4 -2 -16 5 -26 18 l-19 22 23 -19 c34 -29 26 -2 -10 34
-30 30 -66 50 -91 50 -6 0 13 -12 42 -27 29 -15 48 -29 42 -31 -6 -2 -21 4
-33 12 -31 22 -74 20 -109 -5 -16 -11 -29 -16 -29 -10 0 5 8 15 18 20 9 6 12
11 5 11 -6 0 -22 -15 -34 -32 -16 -22 -17 -28 -6 -19 20 16 23 2 5 -19 -9 -9
-4 -8 13 3 l27 16 -18 -47 c-10 -26 -21 -75 -25 -109 -5 -44 -11 -63 -21 -63
-15 0 -18 14 -15 70 1 24 -1 31 -7 21 -7 -10 -24 -12 -63 -8 -49 5 -157 16
-599 63 -80 8 -176 17 -215 21 -100 8 -104 11 -128 83 -15 42 -31 70 -50 84
-26 19 -29 19 -55 4 -24 -15 -30 -37 -8 -30 5 2 5 -5 1 -15 -4 -10 -10 -49
-12 -86 -5 -55 -9 -67 -22 -65 -9 2 -17 15 -19 31 -2 19 -9 27 -20 26 -9 -1
-24 0 -32 3 -8 3 -80 13 -159 21 -79 9 -149 21 -155 27 -12 12 -12 40 -8 352
2 172 4 196 18 194 13 -2 15 -33 14 -254 0 -150 3 -260 9 -271 8 -14 27 -20
91 -25 58 -5 85 -4 96 4 11 10 14 62 15 289 1 152 4 266 6 254 2 -13 8 -23 12
-23 12 0 483 -50 534 -56 l47 -7 0 35 0 35 -142 22 c-146 23 -607 96 -665 106
-31 6 -33 8 -33 51 l0 44 45 -2 c35 -2 45 -7 45 -21 0 -26 22 -30 105 -20 41
5 78 6 82 2 5 -5 24 -11 43 -14 19 -3 143 -26 274 -50 131 -24 243 -42 247
-39 5 3 9 -109 9 -248 0 -203 3 -258 14 -273 12 -16 29 -20 94 -23 71 -4 82
-2 101 17 20 20 21 32 21 191 0 131 3 168 13 165 6 -2 84 -11 172 -20 350 -34
426 -43 474 -55 19 -5 37 -7 40 -5 2 3 -1 5 -9 5 -10 0 -10 4 1 17 8 9 9 14 3
10 -18 -11 -177 14 -162 25 9 6 3 7 -15 3 -16 -3 -99 6 -185 20 -251 41 -286
46 -309 48 -19 1 -23 7 -23 34 0 39 -4 39 131 14 57 -11 178 -34 269 -50 91
-17 181 -35 200 -40 19 -5 75 -15 123 -22 65 -9 91 -17 98 -30 15 -28 10 -36
-6 -9 -24 42 -19 -6 7 -59 16 -34 23 -69 26 -147 4 -90 7 -103 23 -107 18 -5
19 1 18 104 0 60 -5 107 -9 104 -4 -3 -6 13 -3 35 5 33 3 40 -11 40 -14 0 -16
16 -16 128 0 152 -3 189 -19 266 -7 32 -10 73 -7 90 4 23 3 27 -4 16 -8 -11
-9 -1 -5 35 4 38 3 45 -5 30 -8 -15 -9 -7 -5 35 2 32 1 47 -4 36 -5 -14 -11 1
-20 54 -6 40 -10 75 -7 77 2 3 8 -16 11 -42 4 -25 10 -44 12 -41 3 3 0 35 -6
73 -7 37 -13 78 -14 91 -2 26 -14 29 -20 5 -3 -10 -5 -2 -6 17 0 26 2 31 9 20
8 -12 10 -11 10 6 0 46 -13 85 -26 80 -8 -3 -14 -1 -14 4 0 6 13 10 29 10 24
0 30 -5 35 -27z m1260 12 c81 -12 177 -71 146 -90 -6 -4 -9 -1 -8 6 7 29 -120
69 -217 69 -49 0 -65 7 -50 22 5 5 62 2 129 -7z m-1301 -35 c3 -11 1 -20 -4
-20 -5 0 -9 9 -9 20 0 11 2 20 4 20 2 0 6 -9 9 -20z m-96 -46 c-3 -3 -12 -4
-19 -1 -8 3 -5 6 6 6 11 1 17 -2 13 -5z m1536 -58 l15 -28 20 20 c11 11 23 18
26 15 3 -4 6 -55 6 -115 0 -96 -2 -108 -17 -108 -33 0 -45 17 -63 86 -10 38
-19 58 -19 45 -1 -32 -7 -24 -15 19 -4 26 -3 31 4 20 10 -15 8 22 -6 88 -5 23
-4 23 15 5 11 -10 26 -31 34 -47z m-1596 48 c-3 -3 -12 -4 -19 -1 -8 3 -5 6 6
6 11 1 17 -2 13 -5z m-64 -11 c-7 -2 -19 -2 -25 0 -7 3 -2 5 12 5 14 0 19 -2
13 -5z m-1853 -106 c-39 -86 -79 -207 -101 -309 -19 -91 -25 -82 -59 89 -11
59 -15 104 -10 125 4 18 8 25 9 16 3 -45 50 9 66 74 9 35 13 44 14 26 2 -44
17 -41 67 12 26 27 49 50 50 50 1 0 -15 -38 -36 -83z m1683 68 c-3 -9 -8 -14
-10 -11 -3 3 -2 9 2 15 9 16 15 13 8 -4z m404 -37 c-3 -8 -6 -5 -6 6 -1 11 2
17 5 13 3 -3 4 -12 1 -19z m-420 -305 c-1 -60 -3 -11 -3 107 0 118 2 167 3
108 2 -60 2 -156 0 -215z m-362 297 c3 -6 -1 -7 -9 -4 -18 7 -21 14 -7 14 6 0
13 -4 16 -10z m-122 -7 c-7 -2 -21 -2 -30 0 -10 3 -4 5 12 5 17 0 24 -2 18 -5z
m-53 -7 c0 -2 -7 -7 -16 -10 -8 -3 -12 -2 -9 4 6 10 25 14 25 6z m2357 -88
c-3 -8 -6 -5 -6 6 -1 11 2 17 5 13 3 -3 4 -12 1 -19z m-2989 -15 c-10 -2 -26
-2 -35 0 -10 3 -2 5 17 5 19 0 27 -2 18 -5z m-75 -10 c-7 -2 -19 -2 -25 0 -7
3 -2 5 12 5 14 0 19 -2 13 -5z m-70 -13 c-22 -9 -23 -15 -25 -127 l-2 -118 -3
114 c-4 116 3 142 36 140 11 0 9 -3 -6 -9z m3167 -42 c0 -5 -7 -3 -15 6 -8 8
-15 18 -15 22 0 3 7 1 15 -6 8 -7 15 -17 15 -22z m-2143 -60 c-3 -7 -5 -2 -5
12 0 14 2 19 5 13 2 -7 2 -19 0 -25z m-210 -105 c-2 -16 -4 -5 -4 22 0 28 2
40 4 28 2 -13 2 -35 0 -50z m-810 35 c-3 -8 -6 -5 -6 6 -1 11 2 17 5 13 3 -3
4 -12 1 -19z m-10 -55 c-3 -10 -5 -4 -5 12 0 17 2 24 5 18 2 -7 2 -21 0 -30z
m1130 11 c-3 -3 -12 -4 -19 -1 -8 3 -5 6 6 6 11 1 17 -2 13 -5z m-1446 -41
c-11 -4 -11 -7 0 -14 7 -4 11 -10 8 -13 -2 -3 -11 -1 -18 3 -15 10 -6 31 12
30 8 0 7 -3 -2 -6z m112 0 c-13 -2 -35 -2 -50 0 -16 2 -5 4 22 4 28 0 40 -2
28 -4z m-176 -135 c-2 -18 -4 -6 -4 27 0 33 2 48 4 33 2 -15 2 -42 0 -60z
m1779 4 c-21 -2 -42 0 -47 5 -4 4 13 6 39 3 l47 -5 -39 -3z m-1754 -78 c-5 -9
-8 -1 -9 23 -1 33 0 35 8 15 5 -13 5 -30 1 -38z m1142 40 c5 -12 19 -15 69
-14 89 3 87 4 87 -34 0 -33 -1 -34 -32 -27 -18 4 -36 8 -40 9 -5 1 -21 2 -38
2 -20 0 -30 5 -30 15 0 8 -4 15 -10 15 -5 0 -10 -4 -10 -10 0 -5 -4 -10 -8
-10 -5 0 -9 16 -10 35 -1 36 11 47 22 19z m-676 -47 c10 0 12 -55 10 -256 l-3
-256 -55 -3 c-30 -2 -70 -1 -87 3 l-33 6 0 260 0 261 78 -8 c42 -4 83 -7 90
-7z m835 -254 c-2 -102 -7 -170 -13 -179 -8 -9 -30 -11 -78 -8 -37 3 -72 7
-79 9 -8 3 -12 55 -13 177 0 96 2 176 4 179 3 2 45 1 93 -4 l88 -9 -2 -165z
m-1169 108 c3 -4 -7 -19 -22 -32 l-27 -24 23 26 c12 14 19 29 15 32 -3 4 -4 7
0 7 3 0 8 -4 11 -9z m2063 -73 c-3 -8 -6 -5 -6 6 -1 11 2 17 5 13 3 -3 4 -12
1 -19z m4 -84 l-8 -29 -5 27 c-3 15 -1 25 3 22 5 -3 9 0 9 7 0 7 2 10 5 8 2
-3 1 -18 -4 -35z m177 -8 c6 -29 -15 -43 -35 -24 -14 14 -14 20 -3 33 16 19
34 15 38 -9z m983 -49 c-8 -8 -11 -5 -11 9 0 27 14 41 18 19 2 -9 -1 -22 -7
-28z m-1161 -37 c-6 -42 -8 -47 -9 -20 -1 34 8 84 14 78 2 -2 0 -28 -5 -58z
m298 -64 c-2 -11 -10 -22 -19 -24 -21 -4 -33 26 -18 44 15 18 41 5 37 -20z
m836 5 c9 -14 -4 -41 -19 -41 -21 0 -28 19 -15 35 14 17 26 19 34 6z m-2568
-116 c-10 -34 -26 -48 -26 -23 0 6 -3 8 -6 5 -4 -4 -2 -13 5 -20 9 -11 8 -17
-2 -26 -11 -9 -14 -5 -15 21 -1 33 13 68 32 80 19 12 23 -1 12 -37z m1421 -27
c-3 -8 -6 -5 -6 6 -1 11 2 17 5 13 3 -3 4 -12 1 -19z m-151 -11 c2 -7 -2 -30
-10 -52 l-14 -40 -12 30 c-7 17 -14 25 -17 17 -3 -7 3 -24 12 -38 16 -24 16
-26 -4 -31 -12 -3 -21 -13 -21 -23 0 -13 6 -17 20 -13 23 6 24 4 10 -33 -6
-15 -8 -35 -4 -43 5 -12 9 -7 13 17 7 41 23 42 34 2 8 -31 21 -38 32 -19 4 6
-2 21 -14 33 -12 12 -21 26 -21 31 0 4 -6 13 -14 19 -12 9 -10 19 10 61 17 35
22 41 19 21 -5 -23 -3 -27 9 -23 9 4 16 2 16 -3 0 -5 -11 -12 -24 -16 -31 -7
-23 -34 9 -34 13 0 27 -4 30 -10 4 -6 -5 -10 -21 -10 -27 0 -27 0 -8 -21 17
-19 19 -19 31 -3 17 23 16 12 0 -29 -19 -44 -41 -61 -72 -53 -32 8 -63 52 -46
69 16 16 13 32 -4 17 -13 -11 -15 -5 -15 43 0 60 12 102 37 129 19 21 32 23
39 5z m-1254 -9 c-18 -18 -15 -28 11 -29 16 -1 18 -2 5 -6 -22 -5 -23 -22 -3
-29 16 -7 21 -24 6 -24 -5 0 -19 15 -30 34 -23 36 -19 66 7 66 12 0 13 -3 4
-12z m-38 -70 c-3 -25 -2 -28 4 -11 l7 22 21 -24 c18 -20 20 -26 8 -36 -19
-16 -42 -4 -54 26 -14 36 -12 55 3 55 9 0 13 -11 11 -32z m1432 -21 c-2 -7 -5
-5 -5 5 -1 12 -6 15 -18 11 -16 -6 -16 -5 -4 11 13 16 15 16 23 1 5 -9 7 -21
4 -28z m-65 7 c5 -15 8 -29 5 -31 -2 -2 -8 10 -14 26 -13 38 -5 41 9 5z m1099
6 c0 -5 -2 -10 -4 -10 -3 0 -8 5 -11 10 -3 6 -1 10 4 10 6 0 11 -4 11 -10z
m-1063 -32 c-3 -8 -6 -5 -6 6 -1 11 2 17 5 13 3 -3 4 -12 1 -19z m43 -47 c0
-5 -9 -7 -20 -4 -11 3 -20 7 -20 9 0 2 9 4 20 4 11 0 20 -4 20 -9z"/>
<path d="M2445 4637 c28 -25 59 -61 70 -81 16 -30 25 -36 52 -36 18 0 33 -4
33 -10 0 -5 -9 -10 -20 -10 -11 0 -20 -3 -20 -6 0 -4 14 -49 30 -101 17 -51
30 -99 30 -106 0 -6 -21 26 -48 72 -68 122 -114 165 -202 192 -57 17 -87 20
-140 16 -71 -6 -207 -53 -250 -87 l-25 -20 24 0 c13 0 49 -7 81 -15 58 -15 58
-15 115 15 63 33 110 42 60 11 -16 -10 -38 -27 -48 -39 -18 -20 -18 -20 10
-26 80 -16 101 -17 107 -7 4 6 16 16 27 22 19 10 20 8 17 -18 -3 -27 0 -29 81
-57 l84 -29 -46 -12 c-25 -6 -62 -22 -81 -36 -30 -20 -34 -26 -21 -35 23 -17
18 -24 -18 -24 -36 0 -76 -35 -115 -101 -28 -47 -28 -51 5 -43 28 7 28 7 10
-17 -9 -13 -25 -35 -34 -47 -20 -28 -28 -112 -16 -166 l9 -40 42 38 c36 33 42
44 42 80 l1 41 15 -29 16 -28 33 32 c27 27 34 42 40 89 9 80 22 95 30 38 4
-26 10 -47 14 -47 3 0 34 30 69 67 50 54 60 61 47 35 -37 -76 -85 -213 -109
-312 -26 -108 -56 -280 -49 -280 2 0 24 5 49 11 38 10 44 15 44 38 0 70 53
314 96 441 26 77 49 138 52 135 3 -2 8 -27 13 -54 9 -61 47 -201 59 -221 7
-12 12 -11 29 4 24 21 25 19 11 -19 -8 -21 -5 -36 16 -78 28 -58 79 -125 88
-116 10 10 26 110 26 163 0 88 -27 187 -78 289 -27 53 -48 97 -45 97 15 0 86
-45 126 -80 26 -23 49 -41 51 -39 2 2 13 20 25 39 l22 35 -7 -52 -6 -51 41
-26 c49 -31 61 -32 61 -5 0 28 17 15 25 -19 5 -23 16 -31 68 -50 34 -12 65
-22 69 -22 17 0 -47 141 -90 198 -33 43 -111 100 -170 123 -55 21 -29 25 43 5
55 -14 130 -50 140 -66 3 -5 35 -10 71 -10 l64 0 0 30 c0 17 5 30 10 30 6 0
10 -10 10 -23 0 -36 19 -47 80 -47 l55 1 -69 65 c-42 41 -93 78 -131 95 -136
64 -319 53 -480 -28 -61 -31 -46 -8 24 36 59 38 138 66 226 80 75 11 84 16 67
33 -24 24 -11 28 25 9 37 -18 38 -18 80 2 24 12 43 24 43 28 0 14 -153 32
-232 26 -89 -5 -160 -29 -242 -79 -27 -16 -46 -23 -44 -16 11 29 29 130 25
135 -3 3 -19 -21 -35 -53 -31 -62 -33 -61 -47 19 -10 61 -23 81 -73 112 -37
24 -60 30 -117 33 l-70 4 50 -45z"/>
<path d="M3690 3700 c0 -5 5 -10 11 -10 5 0 7 5 4 10 -3 6 -8 10 -11 10 -2 0
-4 -4 -4 -10z"/>
<path d="M3720 3706 c0 -2 9 -6 20 -9 11 -3 20 -1 20 4 0 5 -9 9 -20 9 -11 0
-20 -2 -20 -4z"/>
<path d="M3730 3680 c8 -5 20 -10 25 -10 6 0 3 5 -5 10 -8 5 -19 10 -25 10 -5
0 -3 -5 5 -10z"/>
<path d="M3538 3673 c6 -2 18 -2 25 0 6 3 1 5 -13 5 -14 0 -19 -2 -12 -5z"/>
<path d="M3770 3669 c0 -5 5 -7 10 -4 6 3 10 8 10 11 0 2 -4 4 -10 4 -5 0 -10
-5 -10 -11z"/>
<path d="M3358 3633 c7 -3 16 -2 19 1 4 3 -2 6 -13 5 -11 0 -14 -3 -6 -6z"/>
<path d="M3690 3630 c8 -5 22 -9 30 -9 10 0 8 3 -5 9 -27 12 -43 12 -25 0z"/>
<path d="M3642 3560 c0 -14 2 -19 5 -12 2 6 2 18 0 25 -3 6 -5 1 -5 -13z"/>
<path d="M3620 3520 c0 -5 5 -10 11 -10 5 0 7 5 4 10 -3 6 -8 10 -11 10 -2 0
-4 -4 -4 -10z"/>
<path d="M3517 3499 c7 -7 15 -10 18 -7 3 3 -2 9 -12 12 -14 6 -15 5 -6 -5z"/>
<path d="M4052 3224 c10 -10 20 -16 22 -13 3 3 -5 11 -17 18 -21 13 -21 12 -5
-5z"/>
<path d="M4001 2610 c1 -50 5 -90 10 -90 12 0 9 169 -2 176 -5 2 -8 -36 -8
-86z"/>
<path d="M3638 2593 c7 -3 16 -2 19 1 4 3 -2 6 -13 5 -11 0 -14 -3 -6 -6z"/>
<path d="M3688 2593 c7 -3 16 -2 19 1 4 3 -2 6 -13 5 -11 0 -14 -3 -6 -6z"/>
<path d="M3698 2573 c6 -2 18 -2 25 0 6 3 1 5 -13 5 -14 0 -19 -2 -12 -5z"/>
<path d="M3783 2573 c9 -2 25 -2 35 0 9 3 1 5 -18 5 -19 0 -27 -2 -17 -5z"/>
<path d="M3870 2526 c0 -34 4 -46 15 -46 12 0 15 -16 15 -84 0 -83 0 -83 -25
-83 -14 0 -28 3 -31 8 -3 5 -11 9 -17 9 -7 0 1 -9 17 -19 16 -11 35 -17 43
-14 9 4 14 0 12 -8 -1 -8 1 -22 6 -32 6 -15 10 -16 16 -5 7 10 9 9 9 -4 0 -10
7 -16 18 -15 14 1 17 7 14 30 -3 21 -7 25 -13 16 -7 -11 -9 -11 -9 -1 0 7 -4
11 -9 8 -5 -3 -15 2 -22 11 -12 14 -11 15 10 8 21 -6 23 -5 17 11 -12 31 -18
123 -7 99 5 -11 10 -34 10 -52 1 -41 11 -64 23 -57 7 4 7 9 0 13 -5 3 -12 42
-15 86 -6 75 -5 76 3 21 13 -77 24 -87 18 -15 -3 38 -12 66 -26 84 -14 17 -20
36 -17 47 4 12 1 18 -9 18 -8 0 -21 3 -30 6 -13 5 -16 -2 -16 -40z m57 -58
c-3 -8 -6 -5 -6 6 -1 11 2 17 5 13 3 -3 4 -12 1 -19z"/>
<path d="M3708 2513 c6 -2 18 -2 25 0 6 3 1 5 -13 5 -14 0 -19 -2 -12 -5z"/>
<path d="M3755 2511 c-6 -11 13 -26 22 -17 4 3 1 6 -6 6 -7 0 -9 5 -6 10 3 6
4 10 1 10 -3 0 -7 -4 -11 -9z"/>
<path d="M3800 2500 c8 -5 22 -9 30 -9 10 0 8 3 -5 9 -27 12 -43 12 -25 0z"/>
<path d="M4267 2474 c-4 -4 12 -70 29 -114 3 -8 4 -16 2 -16 -6 -3 39 -48 85
-85 l49 -39 216 0 c118 0 213 2 211 4 -3 3 -91 6 -196 7 -105 1 -195 4 -201 8
-6 3 124 5 289 3 l299 -3 24 26 c36 39 66 106 66 148 0 42 -2 43 -36 21 -22
-15 -55 -16 -297 -10 -354 8 -443 15 -494 37 -22 9 -43 15 -46 13z m123 -201
c0 -2 -18 10 -40 27 -22 17 -40 34 -40 37 0 2 18 -10 40 -27 22 -17 40 -34 40
-37z m44 -32 c-2 -3 -12 3 -22 13 -16 17 -16 18 5 5 12 -7 20 -15 17 -18z"/>
<path d="M3356 2453 c-97 -2 -165 -8 -173 -14 -18 -15 -18 -202 0 -217 27 -22
312 -31 333 -10 16 17 21 186 6 215 -6 11 -8 23 -5 27 3 3 4 5 2 4 -2 -1 -76
-4 -163 -5z m144 -43 c6 -11 10 -57 8 -103 l-3 -82 -145 3 c-80 1 -150 5 -156
7 -12 4 -20 168 -9 185 4 6 68 10 150 10 134 0 145 -1 155 -20z"/>
<path d="M3310 2410 c0 -5 14 -10 30 -10 17 0 30 5 30 10 0 6 -13 10 -30 10
-16 0 -30 -4 -30 -10z"/>
<path d="M3738 2383 c12 -2 32 -2 45 0 12 2 2 4 -23 4 -25 0 -35 -2 -22 -4z"/>
<path d="M3758 2363 c6 -2 18 -2 25 0 6 3 1 5 -13 5 -14 0 -19 -2 -12 -5z"/>
<path d="M3700 2340 c0 -5 7 -10 16 -10 8 0 12 5 9 10 -3 6 -10 10 -16 10 -5
0 -9 -4 -9 -10z"/>
<path d="M3788 2333 c7 -3 16 -2 19 1 4 3 -2 6 -13 5 -11 0 -14 -3 -6 -6z"/>
<path d="M3665 2310 c-3 -6 1 -7 9 -4 18 7 21 14 7 14 -6 0 -13 -4 -16 -10z"/>
<path d="M3705 2290 c-3 -5 -2 -10 4 -10 5 0 13 5 16 10 3 6 2 10 -4 10 -5 0
-13 -4 -16 -10z"/>
<path d="M3741 2296 c10 -9 79 -14 74 -5 -4 5 -22 9 -42 9 -20 0 -34 -2 -32
-4z"/>
<path d="M3610 2260 c-6 -11 -8 -20 -6 -20 3 0 10 9 16 20 6 11 8 20 6 20 -3
0 -10 -9 -16 -20z"/>
<path d="M3658 2262 c-11 -15 -11 -15 2 -5 10 8 21 9 30 3 12 -8 11 -10 -5
-11 -11 0 -15 -3 -8 -5 7 -3 19 -1 28 3 14 8 12 11 -9 21 -20 9 -27 8 -38 -6z"/>
<path d="M3735 2270 c-3 -6 1 -7 9 -4 18 7 21 14 7 14 -6 0 -13 -4 -16 -10z"/>
<path d="M3771 2276 c2 -2 20 -11 39 -20 l35 -17 -24 21 c-13 11 -30 20 -39
20 -8 0 -13 -2 -11 -4z"/>
<path d="M3841 2268 c9 -7 14 -19 11 -27 -3 -8 0 -11 7 -7 17 11 13 24 -11 36
-20 9 -21 9 -7 -2z"/>
<path d="M3617 2217 c-3 -8 1 -14 8 -14 7 0 11 6 8 14 -3 7 -6 13 -8 13 -2 0
-5 -6 -8 -13z"/>
<path d="M3660 2215 c-7 -9 -11 -17 -9 -20 3 -2 10 5 17 15 14 24 10 26 -8 5z"/>
<path d="M3710 2200 c-9 -6 -10 -10 -3 -10 6 0 15 5 18 10 8 12 4 12 -15 0z"/>
<path d="M3468 2183 c7 -3 16 -2 19 1 4 3 -2 6 -13 5 -11 0 -14 -3 -6 -6z"/>
<path d="M3622 2185 c4 -4 3 -16 -3 -26 -5 -11 -7 -19 -5 -19 3 0 10 9 16 19
7 15 7 22 -2 27 -7 4 -10 4 -6 -1z"/>
<path d="M3606 2078 c3 -5 10 -6 15 -3 13 9 11 12 -6 12 -8 0 -12 -4 -9 -9z"/>
<path d="M4172 2008 c-29 -30 -49 -57 -46 -61 4 -4 49 -7 100 -7 l92 0 50 40
c55 43 66 56 55 63 -5 3 -51 8 -103 11 l-95 7 -53 -53z m76 -6 c3 -17 -2 -22
-17 -22 -14 0 -21 6 -21 18 0 38 33 41 38 4z"/>
<path d="M5101 2049 c-30 -5 -57 -11 -59 -14 -7 -7 61 -85 74 -85 7 0 25 4 39
10 23 9 26 15 23 52 -2 23 -7 42 -13 43 -5 2 -34 -1 -64 -6z m49 -49 c0 -11
-4 -20 -10 -20 -5 0 -10 9 -10 20 0 11 5 20 10 20 6 0 10 -9 10 -20z"/>
<path d="M2120 2460 c0 -11 5 -20 10 -20 6 0 10 9 10 20 0 11 -4 20 -10 20 -5
0 -10 -9 -10 -20z"/>
<path d="M3814 2059 c-3 -6 -1 -16 5 -22 8 -8 11 -5 11 11 0 24 -5 28 -16 11z"/>
<path d="M3780 1985 c0 -8 4 -15 10 -15 5 0 7 7 4 15 -4 8 -8 15 -10 15 -2 0
-4 -7 -4 -15z"/>
<path d="M3831 1860 c-1 -18 16 -46 23 -40 2 3 -2 16 -9 30 -8 15 -14 19 -14
10z"/>
</g>
</svg>
